<?xml version="1.0" encoding="UTF-8" standalone="no"?>
<!-- Created with Inkscape (http://www.inkscape.org/) -->

<svg
   xmlns:dc="http://purl.org/dc/elements/1.1/"
   xmlns:cc="http://creativecommons.org/ns#"
   xmlns:rdf="http://www.w3.org/1999/02/22-rdf-syntax-ns#"
   xmlns:svg="http://www.w3.org/2000/svg"
   xmlns="http://www.w3.org/2000/svg"
   xmlns:sodipodi="http://sodipodi.sourceforge.net/DTD/sodipodi-0.dtd"
   xmlns:inkscape="http://www.inkscape.org/namespaces/inkscape"
   width="210mm"
   height="297mm"
   viewBox="0 0 210 297"
   version="1.1"
   id="svg8"
   sodipodi:docname="Logo.svg"
   inkscape:version="0.92.3 (2405546, 2018-03-11)">
  <defs
     id="defs2" />
  <sodipodi:namedview
     id="base"
     pagecolor="#ffffff"
     bordercolor="#666666"
     borderopacity="1.0"
     inkscape:pageopacity="0.0"
     inkscape:pageshadow="2"
     inkscape:zoom="1.1343171"
     inkscape:cx="640.47912"
     inkscape:cy="762.22465"
     inkscape:document-units="mm"
     inkscape:current-layer="layer1"
     showgrid="false"
     inkscape:window-width="1920"
     inkscape:window-height="1001"
     inkscape:window-x="-9"
     inkscape:window-y="-9"
     inkscape:window-maximized="1" />
  <metadata
     id="metadata5">
    <rdf:RDF>
      <cc:Work
         rdf:about="">
        <dc:format>image/svg+xml</dc:format>
        <dc:type
           rdf:resource="http://purl.org/dc/dcmitype/StillImage" />
        <dc:title></dc:title>
      </cc:Work>
    </rdf:RDF>
  </metadata>
  <g
     inkscape:label="Capa 1"
     inkscape:groupmode="layer"
     id="layer1">
    <flowRoot
       xml:space="preserve"
       id="flowRoot10"
       style="fill:black;fill-opacity:1;stroke:none;font-family:sans-serif;font-style:normal;font-weight:normal;font-size:40px;line-height:1.25;letter-spacing:0px;word-spacing:0px"><flowRegion
         id="flowRegion12"><rect
           id="rect14"
           width="217.14285"
           height="294.28571"
           x="111.42857"
           y="373.94824" /></flowRegion><flowPara
         id="flowPara16"></flowPara></flowRoot>    <g
       id="g54"
       transform="matrix(0.60888673,0,0,0.58657496,-40.2535,-91.485341)">
      <path
         style="fill:#e6e6e6;fill-opacity:1;stroke-width:0.67195767"
         d="m 100.37367,242.73701 c -19.165778,-5.18434 -32.253965,-22.12302 -32.253965,-41.74297 0,-8.95429 2.005681,-15.59414 7.10418,-23.51852 7.876749,-12.24249 21.223114,-19.48677 35.901115,-19.48677 23.7884,0 43.00529,19.21688 43.00529,43.00529 0,19.96893 -13.468,36.98514 -33.2351,41.99106 -5.34003,1.35234 -15.03839,1.23509 -20.52152,-0.24809 z m 8.84375,-26.51323 1.7882,-2.24113 -3.73115,-1.82992 c -4.84449,-2.37597 -5.61104,-1.60764 -2.85876,2.86538 1.16647,1.89576 2.3217,3.44682 2.56719,3.44681 0.24548,-1e-5 1.25102,-1.00853 2.23452,-2.24114 z m 8.58619,-1.15582 c 1.1496,-1.86834 1.9155,-3.67961 1.702,-4.02506 -0.29813,-0.48238 -6.35611,1.9746 -7.59984,3.08233 -0.33772,0.30079 2.75188,4.33971 3.3197,4.33971 0.26838,0 1.42854,-1.52864 2.57814,-3.39698 z M 111.125,208.0496 c 0,-2.46385 -0.22399,-3.02381 -1.20953,-3.02381 -1.24634,0 -2.82222,-1.20067 -2.82222,-2.15027 0,-0.29566 0.90714,-0.53756 2.01587,-0.53756 h 2.01588 v -5.03969 c 0,-4.03174 -0.20159,-5.03968 -1.00794,-5.03968 -0.5869,0 -1.00794,-0.61031 -1.00794,-1.46105 v -1.46104 l -1.55521,1.46104 c -2.08465,1.95843 -3.14849,1.84109 -3.14849,-0.34727 0,-1.73429 -0.0404,-1.75493 -0.98657,-0.50397 -0.54261,0.71739 -0.99618,2.1359 -1.00793,3.15224 -0.0118,1.01633 -0.32375,1.84788 -0.69333,1.84788 -0.36958,0 -0.67196,-0.30238 -0.67196,-0.67196 0,-0.36957 -0.60476,-0.67195 -1.343914,-0.67195 -2.014769,0 -1.864174,4.39827 0.228816,6.6828 0.864998,0.94417 1.961928,2.775 2.437598,4.06852 1.05652,2.87299 5.18453,6.69596 7.24496,6.70958 1.3454,0.009 1.51191,-0.32302 1.51191,-3.01381 z m -7.22355,-13.27117 c 0.15399,-0.46197 1.13673,-0.83994 2.18386,-0.83994 1.04714,0 2.02988,0.37797 2.18387,0.83994 0.19004,0.57015 -0.51144,0.83995 -2.18387,0.83995 -1.67242,0 -2.37391,-0.2698 -2.18386,-0.83995 z"
         id="path58"
         inkscape:connector-curvature="0" />
      <path
         style="fill:#8c8c8c;fill-opacity:1;stroke-width:0.67195767"
         d="m 86.262562,225.64791 c 0,-1.77031 3.356861,-9.38492 4.517312,-10.24694 3.099941,-2.30275 3.992906,-1.95382 10.636476,4.15615 3.49187,3.21142 6.34886,6.09372 6.34886,6.40512 0,0.31141 -4.8381,0.56619 -10.751325,0.56619 -8.417328,0 -10.751323,-0.19115 -10.751323,-0.88052 z m 28.222218,0.31433 c 0,-0.3114 2.85699,-3.1937 6.34886,-6.40512 6.64357,-6.10997 7.53654,-6.4589 10.63648,-4.15615 1.16045,0.86202 4.51731,8.47663 4.51731,10.24694 0,0.68937 -2.334,0.88052 -10.75132,0.88052 -5.91323,0 -10.75133,-0.25478 -10.75133,-0.56619 z m -4.3,-1.588 c -0.81997,-1.25144 -0.91168,-2.12221 -0.40833,-3.87728 0.42373,-1.47745 0.41769,-2.54225 -0.0174,-3.06648 -1.07427,-1.29442 1.06099,-2.74296 2.40234,-1.62973 0.62848,0.52158 0.79386,1.1027 0.42017,1.47639 -0.37369,0.37369 -0.35729,1.63643 0.0417,3.20815 0.51624,2.03382 0.43839,2.9053 -0.36155,4.04737 l -1.01945,1.45546 -1.05746,-1.61388 z m -16.73249,-28.72302 0.409215,-11.39043 -1.783598,-0.81266 c -0.98098,-0.44697 -1.783599,-1.04821 -1.783599,-1.3361 0,-0.47789 4.897111,-2.09286 14.886492,-4.90928 2.08955,-0.58913 4.81098,-1.06807 6.04761,-1.0643 2.19692,0.007 19.7175,4.80701 20.53736,5.62688 0.6596,0.6596 -0.12368,1.12538 -4.63883,2.75853 l -4.24268,1.5346 -0.44037,3.51643 c -0.2422,1.93404 -0.92255,3.99862 -1.5119,4.58797 -0.98075,0.98075 -1.07154,0.85601 -1.07154,-1.4723 0,-2.31258 -0.096,-2.44784 -1.05594,-1.4879 -1.58358,1.58358 -2.30385,1.28346 -2.30385,-0.95994 0,-1.10873 -0.18687,-2.01587 -0.41526,-2.01587 -0.2284,0 -1.44844,0.90714 -2.71121,2.01587 -2.9206,2.56431 -3.59311,2.53628 -3.59311,-0.14975 v -2.16563 l -2.18386,2.33361 -2.18386,2.33362 -0.21263,-1.84788 c -0.11694,-1.01634 -0.47777,-1.84789 -0.80184,-1.84789 -0.90174,0 -2.67455,2.81826 -2.73588,4.34925 -0.0905,2.25921 -1.895494,-2.29289 -1.930986,-4.86985 -0.02382,-1.72961 -0.399149,-2.34072 -1.753947,-2.85582 -3.23903,-1.23147 -3.215375,-1.32044 -2.77357,10.43198 0.3995,10.62706 0.36329,11.0873 -0.872315,11.0873 -1.236245,0 -1.272333,-0.46717 -0.879902,-11.39044 z m 10.95313,-0.96888 c 0,-0.65247 1.89314,-0.89765 2.74877,-0.356 0.6892,0.43631 0.44396,0.6023 -0.90089,0.60979 -1.01633,0.006 -1.84788,-0.10855 -1.84788,-0.25379 z m 10.55217,-0.47751 c 0.53148,-0.53148 1.0931,-0.53727 1.98228,-0.0204 1.08764,0.6322 0.99616,0.72367 -0.74159,0.74159 -1.4456,0.0149 -1.7815,-0.18034 -1.24069,-0.72116 z"
         id="path56"
         inkscape:connector-curvature="0" />
    </g>
    <text
       xml:space="preserve"
       style="font-style:normal;font-weight:normal;font-size:10.58333302px;line-height:1.25;font-family:sans-serif;letter-spacing:0px;word-spacing:0px;fill:#000000;fill-opacity:1;stroke:none;stroke-width:0.26458332"
       x="21.095949"
       y="49.965096"
       id="text70"><tspan
         sodipodi:role="line"
         id="tspan68"
         x="21.095949"
         y="49.965096"
         style="fill:#ff7f2a;stroke-width:0.26458332">ST</tspan></text>
  </g>
</svg>
